<svg width="361" height="552" viewBox="0 0 361 552" fill="none" xmlns="http://www.w3.org/2000/svg">
<path d="M161.153 294.587C165.108 318.652 193.411 348.059 193.411 348.059C169.554 329.134 146.886 323.278 124.721 287.313C103.407 252.728 111.199 211.452 127.835 174.389C148.691 127.926 180.824 111.711 193.923 71.2603C207.022 30.8098 203.626 2.39947 203.626 2.39947C203.626 2.39947 262.113 38.7685 280.447 80.6829C294.132 111.972 292.534 161.958 292.534 161.958C292.534 161.958 303.862 150.772 308.904 142.067C314.255 132.829 318.312 116.398 318.312 116.398C318.312 116.398 373.337 209.75 354.662 269.92C340.479 315.618 280.714 344.709 280.714 344.709C280.714 344.709 300.031 321.681 304.607 304.087C310.475 281.525 309.05 262.055 293.843 244.385C278.844 226.956 268.155 218.259 258.735 196.848C251.435 180.256 247.224 151.88 247.224 151.88C247.224 151.88 217.741 184.444 209.874 210.384C203.398 231.735 205.871 267.376 205.871 267.376C205.871 267.376 196.232 258.137 191.868 250.912C186.041 241.263 182.6 223.577 182.6 223.577C182.6 223.577 156.456 266.002 161.153 294.587Z" fill="white"/>
<path d="M260.841 336.607C269.418 329.092 269.984 315.936 262.084 307.711L253.2 298.461C245.278 290.213 232.065 290.275 224.221 298.598L20.2599 515.022C15.7968 519.758 15.8318 527.162 20.3395 531.855V531.855C24.8607 536.563 32.2846 536.882 37.1937 532.581L260.841 336.607Z" fill="white"/>
</svg>
